<svg width="346" height="346" viewBox="0 0 346 346" fill="none" xmlns="http://www.w3.org/2000/svg">
<path d="M344.706 153.081C355.049 241.696 295.696 324.814 206.672 342.523C142.8 355.228 80.1534 330.98 40.8562 284.567L86.6493 253.263C116.548 279.295 161.034 284.524 195.75 261.436L344.706 153.081ZM139.205 3.35547C221.043 -12.9239 300.873 31.4616 332.148 105.41L170.289 223.15C156.959 232.015 140.749 232.002 127.302 225.473L190.385 182.351C214.704 166.178 221.399 132.902 205.066 108.342L200.422 101.359C184.249 77.0394 150.973 70.3445 126.654 86.5174L93.9074 108.295C58.1378 132.083 46.0788 177.06 60.4561 215.479L16.0933 245.805C10.4232 233.574 6.10219 220.48 3.35558 206.673C-15.2749 113.014 45.5468 21.9861 139.205 3.35547ZM151.954 124.561C159.418 119.598 172.19 117.886 175.451 126.496C178.284 133.976 168.296 141.824 164.925 144.066L100.728 187.949C98.8682 172.046 105.047 155.756 119.207 146.339L151.954 124.561Z" fill="url(#paint0_linear_419_4218)"/>
<defs>
<linearGradient id="paint0_linear_419_4218" x1="428.622" y1="242.232" x2="-45.8769" y2="64.2296" gradientUnits="userSpaceOnUse">
<stop stop-color="#FEC42D"/>
<stop offset="0.5" stop-color="#EFA252"/>
<stop offset="0.874808" stop-color="#F2B86E"/>
</linearGradient>
</defs>
</svg>
